<svg width="22" height="24" viewBox="0 0 22 24" fill="none" xmlns="http://www.w3.org/2000/svg">
<rect x="7" y="2" width="2" height="2" fill="#333232"/>
<rect x="7" y="4" width="2" height="2" fill="#333232"/>
<rect x="5" y="4" width="2" height="2" fill="#333232"/>
<rect x="5" y="6" width="2" height="2" fill="#333232"/>
<rect x="3" y="6" width="2" height="2" fill="#333232"/>
<rect x="1" y="6" width="2" height="2" fill="#333232"/>
<rect x="1" y="8" width="2" height="2" fill="#333232"/>
<rect x="1" y="10" width="2" height="2" fill="#333232"/>
<rect x="1" y="12" width="2" height="2" fill="#333232"/>
<rect x="1" y="14" width="2" height="2" fill="#333232"/>
<rect x="1" y="16" width="2" height="2" fill="#333232"/>
<rect x="3" y="16" width="2" height="2" fill="#333232"/>
<rect x="5" y="16" width="2" height="2" fill="#333232"/>
<rect x="5" y="18" width="2" height="2" fill="#333232"/>
<rect x="7" y="18" width="2" height="2" fill="#333232"/>
<rect x="7" y="20" width="2" height="2" fill="#333232"/>
<rect x="9" y="20" width="2" height="2" fill="#333232"/>
<rect x="9" y="22" width="2" height="2" fill="#333232"/>
<rect x="11" y="22" width="2" height="2" fill="#333232"/>
<rect x="13" y="22" width="2" height="2" fill="#333232"/>
<rect x="15" y="22" width="2" height="2" fill="#333232"/>
<rect x="15" y="20" width="2" height="2" fill="#333232"/>
<rect x="15" y="18" width="2" height="2" fill="#333232"/>
<rect x="15" y="16" width="2" height="2" fill="#333232"/>
<rect x="15" y="14" width="2" height="2" fill="#333232"/>
<rect x="15" y="12" width="2" height="2" fill="#333232"/>
<rect x="15" y="10" width="2" height="2" fill="#333232"/>
<rect x="15" y="8" width="2" height="2" fill="#333232"/>
<rect x="15" y="6" width="2" height="2" fill="#333232"/>
<rect x="15" y="4" width="2" height="2" fill="#333232"/>
<rect x="15" y="2" width="2" height="2" fill="#333232"/>
<rect x="15" width="2" height="2" fill="#333232"/>
<rect x="13" width="2" height="2" fill="#333232"/>
<rect x="11" width="2" height="2" fill="#333232"/>
<rect x="9" width="2" height="2" fill="#333232"/>
<rect x="9" y="2" width="2" height="2" fill="#333232"/>
<rect x="11" y="4" width="2" height="2" fill="#939393"/>
<rect x="9" y="6" width="2" height="2" fill="#939393"/>
<rect x="7" y="8" width="2" height="2" fill="#939393"/>
<rect x="5" y="8" width="2" height="2" fill="#A3A3A3"/>
<rect x="7" y="6" width="2" height="2" fill="#A3A3A3"/>
<rect x="9" y="4" width="2" height="2" fill="#A3A3A3"/>
<rect x="11" y="2" width="2" height="2" fill="#A3A3A3"/>
<rect x="13" y="2" width="2" height="2" fill="#A3A3A3"/>
<rect x="3" y="8" width="2" height="2" fill="#A3A3A3"/>
<rect x="3" y="10" width="2" height="2" fill="#797979"/>
<rect x="5" y="10" width="2" height="2" fill="#797979"/>
<rect x="7" y="10" width="2" height="2" fill="#797979"/>
<rect x="9" y="10" width="2" height="2" fill="#797979"/>
<rect x="9" y="8" width="2" height="2" fill="#797979"/>
<rect x="11" y="8" width="2" height="2" fill="#797979"/>
<rect x="11" y="6" width="2" height="2" fill="#797979"/>
<rect x="13" y="4" width="2" height="2" fill="#797979"/>
<rect x="13" y="6" width="2" height="2" fill="#797979"/>
<rect x="13" y="8" width="2" height="2" fill="#797979"/>
<rect x="13" y="10" width="2" height="2" fill="#797979"/>
<rect x="11" y="10" width="2" height="2" fill="#797979"/>
<rect x="11" y="12" width="2" height="2" fill="#797979"/>
<rect x="13" y="12" width="2" height="2" fill="#797979"/>
<rect x="9" y="12" width="2" height="2" fill="#797979"/>
<rect x="9" y="14" width="2" height="2" fill="#797979"/>
<rect x="11" y="14" width="2" height="2" fill="#797979"/>
<rect x="13" y="14" width="2" height="2" fill="#797979"/>
<rect x="13" y="16" width="2" height="2" fill="#797979"/>
<rect x="13" y="18" width="2" height="2" fill="#797979"/>
<rect x="11" y="18" width="2" height="2" fill="#797979"/>
<rect x="11" y="16" width="2" height="2" fill="#797979"/>
<rect x="9" y="16" width="2" height="2" fill="#797979"/>
<rect x="7" y="14" width="2" height="2" fill="#797979"/>
<rect x="7" y="12" width="2" height="2" fill="#797979"/>
<rect x="5" y="12" width="2" height="2" fill="#797979"/>
<rect x="3" y="12" width="2" height="2" fill="#797979"/>
<rect x="3" y="14" width="2" height="2" fill="#5B5B5B"/>
<rect x="5" y="14" width="2" height="2" fill="#5B5B5B"/>
<rect x="7" y="16" width="2" height="2" fill="#5B5B5B"/>
<rect x="9" y="18" width="2" height="2" fill="#5B5B5B"/>
<rect x="11" y="20" width="2" height="2" fill="#5B5B5B"/>
<rect x="13" y="20" width="2" height="2" fill="#5B5B5B"/>
<rect x="17" y="14" width="2" height="2" fill="#333232"/>
<rect x="19" y="12" width="2" height="2" fill="#333232"/>
<rect x="19" y="10" width="2" height="2" fill="#333232"/>
<rect x="17" y="8" width="2" height="2" fill="#333232"/>
<rect x="17" y="10" width="2" height="2" fill="#797979"/>
<rect x="17" y="12" width="2" height="2" fill="#797979"/>
<rect x="10" y="12" width="2" height="2" fill="#410303"/>
<rect x="12" y="14" width="2" height="2" fill="#410303"/>
<rect x="14" y="16" width="2" height="2" fill="#410303"/>
<rect x="16" y="18" width="2" height="2" fill="#410303"/>
<rect x="18" y="20" width="2" height="2" fill="#410303"/>
<rect x="20" y="22" width="2" height="2" fill="#410303"/>
<rect x="10" y="12" width="2" height="2" transform="rotate(-180 10 12)" fill="#410303"/>
<rect x="8" y="10" width="2" height="2" transform="rotate(-180 8 10)" fill="#410303"/>
<rect x="6" y="8" width="2" height="2" transform="rotate(-180 6 8)" fill="#410303"/>
<rect x="4" y="6" width="2" height="2" transform="rotate(-180 4 6)" fill="#410303"/>
<rect x="2" y="4" width="2" height="2" transform="rotate(-180 2 4)" fill="#410303"/>
</svg>
