<svg width="14" height="14" viewBox="0 0 14 14" fill="none" xmlns="http://www.w3.org/2000/svg">
<rect x="2" y="14" width="2" height="2" transform="rotate(-180 2 14)" fill="#4C4C4C"/>
<rect x="4" y="12" width="2" height="2" transform="rotate(-180 4 12)" fill="#4C4C4C"/>
<rect x="6" y="10" width="2" height="2" transform="rotate(-180 6 10)" fill="#4C4C4C"/>
<rect x="6" y="6" width="2" height="2" transform="rotate(-180 6 6)" fill="#4C4C4C"/>
<rect x="4" y="4" width="2" height="2" transform="rotate(-180 4 4)" fill="#4C4C4C"/>
<rect x="2" y="2" width="2" height="2" transform="rotate(-180 2 2)" fill="#4C4C4C"/>
<rect x="12" width="2" height="2" fill="#4C4C4C"/>
<rect x="10" y="2" width="2" height="2" fill="#4C4C4C"/>
<rect x="8" y="4" width="2" height="2" fill="#4C4C4C"/>
<rect x="6" y="6" width="2" height="2" fill="#4C4C4C"/>
<rect x="8" y="8" width="2" height="2" fill="#4C4C4C"/>
<rect x="10" y="10" width="2" height="2" fill="#4C4C4C"/>
<rect x="12" y="12" width="2" height="2" fill="#4C4C4C"/>
</svg>
